<svg xmlns="http://www.w3.org/2000/svg" viewBox="0 0 1200 420" role="img" aria-labelledby="title desc">
  <title id="title">Helix Studio Circuit Core monochrome logo</title>
  <desc id="desc">One-color Circuit Core logo lockup for print, engraving, or restricted-color use.</desc>
  <rect width="1200" height="420" rx="44" fill="#070b12"/>
  <g transform="translate(78 48)" fill="none" stroke="#f8fbff" stroke-linecap="round">
    <rect x="28" y="20" width="284" height="284" rx="62" fill="#0d1626" stroke-width="10"/>
    <path d="M95 76v172M245 76v172M95 162h150" stroke-width="24"/>
    <path d="M95 104H48M245 222h56M170 162v-78h44M170 162v76h-44M245 104h38M95 222H66" stroke-width="8"/>
    <g fill="#f8fbff" stroke="none">
      <circle cx="48" cy="104" r="10"/>
      <circle cx="301" cy="222" r="10"/>
      <circle cx="214" cy="84" r="9"/>
      <circle cx="126" cy="238" r="9"/>
      <circle cx="283" cy="104" r="8"/>
      <circle cx="66" cy="222" r="8"/>
    </g>
  </g>
  <g transform="translate(456 132)">
    <text x="0" y="0" fill="#f8fbff" font-family="Inter, Arial, sans-serif" font-size="80" font-weight="820">HELIX</text>
    <text x="2" y="62" fill="#f8fbff" font-family="Inter, Arial, sans-serif" font-size="26" font-weight="650" letter-spacing="8">STUDIO</text>
    <path d="M2 93h84v22h74v-22h330" fill="none" stroke="#f8fbff" stroke-width="7" stroke-linecap="round" stroke-linejoin="round"/>
  </g>
</svg>
